<?xml version="1.0" standalone="no"?>
<!DOCTYPE svg PUBLIC "-//W3C//DTD SVG 20010904//EN"
 "http://www.w3.org/TR/2001/REC-SVG-20010904/DTD/svg10.dtd">
<svg version="1.0" xmlns="http://www.w3.org/2000/svg"
 width="99.000000pt" height="99.000000pt" viewBox="0 0 99.000000 99.000000"
 preserveAspectRatio="xMidYMid meet">
<metadata>
Created by potrace 1.11, written by Peter Selinger 2001-2013
</metadata>
<g transform="translate(0.000000,99.000000) scale(0.100000,-0.100000)"
fill="#000000" stroke="none">
<path d="M128 983 c6 -2 18 -2 25 0 6 3 1 5 -13 5 -14 0 -19 -2 -12 -5z"/>
<path d="M330 975 c0 -8 9 -15 20 -15 11 0 20 7 20 15 0 8 -9 15 -20 15 -11 0
-20 -7 -20 -15z"/>
<path d="M634 982 c7 -12 -79 -26 -95 -16 -6 3 -15 1 -19 -6 -5 -8 -13 -9 -24
-3 -10 6 -41 6 -74 1 -31 -4 -89 -10 -127 -12 -73 -4 -118 -19 -147 -48 -10
-10 -25 -18 -34 -18 -8 0 -12 -4 -9 -10 3 -5 -19 -29 -50 -52 l-55 -43 0 -387
0 -388 294 0 295 0 -2 27 c-2 22 3 29 20 31 13 2 42 21 65 43 38 35 41 42 30
59 -9 15 -10 26 -2 40 26 49 9 102 -53 161 -34 33 -43 35 -55 13 -8 -14 -12
-14 -42 5 -37 22 -50 20 -50 -9 0 -10 -7 -21 -16 -24 -8 -3 -12 -10 -9 -16 14
-22 -28 -23 -44 -1 -11 14 -23 20 -34 15 -18 -6 -20 -14 -17 -51 2 -33 -9 -47
-26 -32 -12 9 -14 5 -14 -29 0 -33 -3 -40 -15 -36 -28 11 -29 50 -1 87 31 40
33 57 8 57 -10 0 -46 26 -79 57 -60 57 -61 58 -34 60 17 1 37 -6 51 -19 12
-12 41 -23 66 -26 55 -6 70 6 112 91 28 56 30 66 21 107 -5 25 -14 78 -18 119
-5 40 -12 76 -17 80 -5 3 -19 21 -32 39 l-23 32 26 10 c15 6 39 10 55 10 16 0
32 5 35 10 11 17 53 11 68 -10 10 -15 12 -33 5 -77 -7 -54 3 -135 21 -155 4
-4 24 9 45 28 34 31 38 33 32 12 -4 -13 -9 -38 -13 -55 -3 -18 -10 -33 -14
-33 -5 0 -9 -7 -9 -15 0 -9 -7 -18 -15 -21 -22 -9 -19 -21 15 -65 18 -22 37
-36 45 -33 20 8 39 -35 36 -84 -1 -28 7 -62 25 -102 30 -68 37 -69 43 -7 1 4
9 3 19 -2 9 -5 43 -12 75 -15 57 -7 57 -6 57 20 0 17 4 24 13 21 50 -21 49
-21 45 4 -2 20 -9 24 -38 24 -39 0 -38 -4 -9 85 10 30 18 46 19 35 1 -17 3
-16 16 8 12 22 14 51 11 130 -3 56 -8 111 -12 122 -12 29 -74 85 -96 85 -31 0
-67 22 -73 44 -4 13 -32 36 -75 60 -43 24 -68 44 -67 54 0 9 -7 18 -18 20 -10
2 -16 0 -12 -6z m-7 -28 c-3 -3 -12 -4 -19 -1 -8 3 -5 6 6 6 11 1 17 -2 13 -5z
m-277 -226 c0 -7 12 -14 26 -14 39 -3 64 -31 64 -76 0 -21 -3 -38 -8 -38 -10
0 -62 56 -62 68 0 5 -11 21 -25 36 -29 31 -30 36 -10 36 8 0 15 -6 15 -12z
m-247 -521 c37 -53 49 -107 24 -107 -22 0 -54 28 -59 52 -3 13 -9 32 -13 42
-6 14 -5 17 4 11 10 -6 11 -3 2 14 -10 18 -8 41 3 41 1 0 19 -24 39 -53z m287
-173 c0 -22 -4 -25 -32 -22 -38 4 -51 34 -23 54 25 18 55 0 55 -32z"/>
<path d="M783 977 c17 -14 17 -15 0 -21 -17 -7 -17 -8 0 -18 10 -5 29 -7 43
-4 17 5 24 2 24 -8 0 -15 27 -30 48 -27 8 1 16 -7 19 -17 4 -15 13 -20 39 -20
19 0 34 5 34 10 0 6 -7 8 -15 4 -11 -4 -15 1 -15 19 0 14 -13 39 -28 56 -25
28 -35 31 -97 36 -62 4 -68 3 -52 -10z"/>
<path d="M977 948 c-3 -18 -1 -37 4 -42 5 -6 9 7 9 32 0 50 -6 54 -13 10z"/>
<path d="M32 841 c4 -13 18 -16 19 -4 0 4 -5 9 -11 12 -7 2 -11 -2 -8 -8z"/>
<path d="M795 189 c-4 -11 -4 -23 -1 -26 3 -4 1 -12 -5 -20 -6 -7 -10 -13 -8
-14 40 -8 55 -7 79 6 34 18 44 61 11 50 -10 -3 -24 1 -31 10 -18 21 -37 19
-45 -6z"/>
<path d="M960 191 c0 -12 6 -21 16 -21 9 0 14 7 12 17 -5 25 -28 28 -28 4z"/>
<path d="M933 138 c2 -7 12 -12 21 -12 9 1 16 -4 16 -12 0 -8 5 -14 10 -14 6
0 10 11 10 25 0 21 -5 25 -31 25 -20 0 -29 -4 -26 -12z"/>
<path d="M890 111 c0 -4 -11 -6 -24 -4 -32 7 -40 -20 -13 -44 12 -11 33 -20
46 -21 13 0 27 -5 30 -11 3 -5 18 -8 34 -8 22 2 27 7 27 28 0 27 -16 39 -50
39 -10 0 -20 7 -24 15 -6 16 -26 21 -26 6z"/>
</g>
</svg>
